<svg width="32" height="32" viewBox="0 0 32 32" fill="none" xmlns="http://www.w3.org/2000/svg">
<circle cx="16" cy="16" r="16" fill="#33936D"/>
<path d="M9.33398 13.585C9.33398 13.3514 9.33398 13.2347 9.34373 13.1363C9.43772 12.1877 10.1882 11.4372 11.1368 11.3432C11.2351 11.3335 11.3582 11.3335 11.6044 11.3335C11.6992 11.3335 11.7466 11.3335 11.7869 11.3311C12.3011 11.2999 12.7513 10.9754 12.9434 10.4975C12.9585 10.4601 12.9725 10.4179 13.0007 10.3335C13.0288 10.2491 13.0428 10.2069 13.0579 10.1695C13.25 9.69158 13.7002 9.36707 14.2144 9.33593C14.2547 9.3335 14.2991 9.3335 14.3881 9.3335H17.6132C17.7022 9.3335 17.7466 9.3335 17.7869 9.33593C18.3011 9.36707 18.7513 9.69158 18.9434 10.1695C18.9585 10.2069 18.9725 10.2491 19.0007 10.3335C19.0288 10.4179 19.0428 10.4601 19.0579 10.4975C19.25 10.9754 19.7002 11.2999 20.2144 11.3311C20.2547 11.3335 20.3021 11.3335 20.3969 11.3335C20.6431 11.3335 20.7662 11.3335 20.8645 11.3432C21.8131 11.4372 22.5636 12.1877 22.6576 13.1363C22.6673 13.2347 22.6673 13.3514 22.6673 13.585V18.8002C22.6673 19.9203 22.6673 20.4803 22.4493 20.9081C22.2576 21.2845 21.9516 21.5904 21.5753 21.7822C21.1475 22.0002 20.5874 22.0002 19.4673 22.0002H12.534C11.4139 22.0002 10.8538 22.0002 10.426 21.7822C10.0497 21.5904 9.74372 21.2845 9.55197 20.9081C9.33398 20.4803 9.33398 19.9203 9.33398 18.8002V13.585Z" stroke="white" stroke-linecap="round" stroke-linejoin="round"/>
<path d="M16.0007 19.0002C17.4734 19.0002 18.6673 17.8063 18.6673 16.3335C18.6673 14.8607 17.4734 13.6668 16.0007 13.6668C14.5279 13.6668 13.334 14.8607 13.334 16.3335C13.334 17.8063 14.5279 19.0002 16.0007 19.0002Z" stroke="white" stroke-linecap="round" stroke-linejoin="round"/>
</svg>
