<svg width="45" height="52" viewBox="0 0 45 52" fill="none" xmlns="http://www.w3.org/2000/svg">
<path d="M16.5944 21.7288C16.5322 21.3282 16.5 20.9179 16.5 20.5C16.5 16.0817 20.1052 12.5 24.5526 12.5C28.9999 12.5 32.6052 16.0817 32.6052 20.5C32.6052 21.4981 32.4213 22.4535 32.0852 23.3345C32.0154 23.5175 31.9804 23.609 31.9646 23.6804C31.9489 23.7512 31.9428 23.801 31.9411 23.8735C31.9394 23.9466 31.9493 24.0272 31.9692 24.1883L32.3717 27.4585C32.4153 27.8125 32.4371 27.9895 32.3782 28.1182C32.3266 28.231 32.235 28.3205 32.1211 28.3695C31.9911 28.4254 31.8146 28.3995 31.4617 28.3478L28.2765 27.8809C28.1101 27.8565 28.027 27.8443 27.9512 27.8448C27.8763 27.8452 27.8245 27.8507 27.7511 27.8661C27.677 27.8817 27.5823 27.9172 27.393 27.9881C26.5097 28.319 25.5524 28.5 24.5526 28.5C24.1344 28.5 23.7237 28.4683 23.3227 28.4073M18.1316 32.5C21.0965 32.5 23.5 30.0376 23.5 27C23.5 23.9624 21.0965 21.5 18.1316 21.5C15.1667 21.5 12.7632 23.9624 12.7632 27C12.7632 27.6106 12.8603 28.1979 13.0395 28.7467C13.1153 28.9787 13.1532 29.0947 13.1657 29.1739C13.1786 29.2567 13.1809 29.3031 13.1761 29.3867C13.1714 29.4668 13.1514 29.5573 13.1113 29.7383L12.5 32.5L15.4948 32.091C15.6583 32.0687 15.74 32.0575 15.8114 32.058C15.8865 32.0585 15.9264 32.0626 16.0001 32.0773C16.0701 32.0912 16.1742 32.1279 16.3823 32.2014C16.9306 32.3949 17.5191 32.5 18.1316 32.5Z" stroke="#33936D" stroke-width="1.5" stroke-linecap="round" stroke-linejoin="round"/>
<path d="M6.77569 43.6999C6.77569 44.2114 6.8466 44.7078 6.9884 45.1889C7.13274 45.6675 7.35304 46.103 7.64931 46.4955C7.94811 46.8855 8.31782 47.1969 8.75843 47.4299L8.08612 48.3111C7.64551 48.0807 7.26948 47.7642 6.95801 47.3615C6.64655 46.9589 6.40092 46.4942 6.22113 45.9675C6.04388 46.5373 5.79825 47.0437 5.48426 47.4869C5.17279 47.9275 4.79676 48.2744 4.35615 48.5276L3.66485 47.635C4.10039 47.3843 4.4663 47.0501 4.76257 46.6323C5.05884 46.2144 5.27915 45.7536 5.42348 45.2497C5.57035 44.7457 5.64505 44.2292 5.64759 43.6999V43.4265H3.94973V42.4503H5.64759V41.0905H6.77189V42.4503H8.44696V43.4265H6.77569V43.6999ZM8.96734 40.9157H10.0954V44.547H11.0868V40.7486H12.2339V50.4496H11.0868V45.5307H10.0954V49.9862H8.96734V40.9157ZM18.5463 42.3933H15.0595V43.3087H18.2653V44.2431H15.0595V45.1851C16.0774 45.1851 16.8839 45.1712 17.479 45.1433C18.0766 45.1129 18.6717 45.0471 19.2642 44.9458L19.382 45.8916C18.7515 45.9954 18.1133 46.065 17.4676 46.1005C16.8219 46.1334 15.9863 46.1499 14.9607 46.1499H14.6796H13.8592V41.4399H18.5463V42.3933ZM14.805 48.6264C14.805 48.2465 14.9366 47.9212 15.2 47.6502C15.4659 47.3767 15.8483 47.1691 16.3471 47.0273C16.8459 46.8829 17.4385 46.8108 18.1247 46.8108C18.8034 46.8108 19.3921 46.8829 19.891 47.0273C20.3898 47.1691 20.7734 47.3767 21.0419 47.6502C21.3128 47.9237 21.4483 48.2491 21.4483 48.6264C21.4483 49.0062 21.3128 49.3329 21.0419 49.6064C20.7734 49.8798 20.3898 50.0875 19.891 50.2293C19.3921 50.3711 18.8034 50.442 18.1247 50.442C17.436 50.442 16.8422 50.3711 16.3433 50.2293C15.847 50.0875 15.4659 49.8798 15.2 49.6064C14.9366 49.3354 14.805 49.0087 14.805 48.6264ZM15.9939 48.6264C15.9939 48.9176 16.1762 49.1404 16.5408 49.2949C16.908 49.4468 17.436 49.5228 18.1247 49.5228C18.8034 49.5228 19.3275 49.4468 19.6972 49.2949C20.0695 49.1404 20.2556 48.9176 20.2556 48.6264C20.2556 48.439 20.172 48.2795 20.0049 48.1478C19.8378 48.0136 19.5947 47.9123 19.2756 47.8439C18.9566 47.773 18.5729 47.7376 18.1247 47.7376C17.4385 47.7376 16.9118 47.8148 16.5446 47.9693C16.1774 48.1212 15.9939 48.3402 15.9939 48.6264ZM20.2024 40.7562H21.3989V46.674H20.2024V40.7562ZM30.5449 44.5128H27.8367V45.5383H31.6692V46.5031H22.8229V45.5383H26.6402V44.5128H23.9358V41.1398H30.5449V44.5128ZM23.8028 47.3198H30.5905V50.4496H29.3902V48.2617H23.8028V47.3198ZM29.3674 43.567V42.078H25.1019V43.567H29.3674ZM41.195 46.9627H32.3183V45.9979H36.166V45.1889H33.4426V42.6174H38.9046V41.8919H33.4198V40.9575H40.0973V43.4872H34.6277V44.2621H40.2872V45.1889H37.3473V45.9979H41.195V46.9627ZM33.3097 47.5742H40.1505V50.3926H38.9502V48.5238H33.3097V47.5742Z" fill="#33936D"/>
</svg>
