<svg width="45" height="52" viewBox="0 0 45 52" fill="none" xmlns="http://www.w3.org/2000/svg">
<path d="M16.5944 21.7288C16.5322 21.3282 16.5 20.9179 16.5 20.5C16.5 16.0817 20.1052 12.5 24.5526 12.5C28.9999 12.5 32.6052 16.0817 32.6052 20.5C32.6052 21.4981 32.4213 22.4535 32.0852 23.3345C32.0154 23.5175 31.9804 23.609 31.9646 23.6804C31.9489 23.7512 31.9428 23.801 31.9411 23.8735C31.9394 23.9466 31.9493 24.0272 31.9692 24.1883L32.3717 27.4585C32.4153 27.8125 32.4371 27.9895 32.3782 28.1182C32.3266 28.231 32.235 28.3205 32.1211 28.3695C31.9911 28.4254 31.8146 28.3995 31.4617 28.3478L28.2765 27.8809C28.1101 27.8565 28.027 27.8443 27.9512 27.8448C27.8763 27.8452 27.8245 27.8507 27.7511 27.8661C27.677 27.8817 27.5823 27.9172 27.393 27.9881C26.5097 28.319 25.5524 28.5 24.5526 28.5C24.1344 28.5 23.7237 28.4683 23.3227 28.4073M18.1316 32.5C21.0965 32.5 23.5 30.0376 23.5 27C23.5 23.9624 21.0965 21.5 18.1316 21.5C15.1667 21.5 12.7632 23.9624 12.7632 27C12.7632 27.6106 12.8603 28.1979 13.0395 28.7467C13.1153 28.9787 13.1532 29.0947 13.1657 29.1739C13.1786 29.2567 13.1809 29.3031 13.1761 29.3867C13.1714 29.4668 13.1514 29.5573 13.1113 29.7383L12.5 32.5L15.4948 32.091C15.6583 32.0687 15.74 32.0575 15.8114 32.058C15.8865 32.0585 15.9264 32.0626 16.0001 32.0773C16.0701 32.0912 16.1742 32.1279 16.3823 32.2014C16.9306 32.3949 17.5191 32.5 18.1316 32.5Z" stroke="#7F7F7F" stroke-width="1.5" stroke-linecap="round" stroke-linejoin="round"/>
<path d="M5.81201 43.3438C5.65088 42.4092 4.89893 41.8721 3.95361 41.8721C2.67529 41.8721 1.78369 42.8496 1.78369 44.6113C1.78369 46.3945 2.68604 47.3506 3.95361 47.3506C4.87744 47.3506 5.62939 46.835 5.81201 45.9219H7.21924C7.00439 47.415 5.77979 48.6074 3.93213 48.6074C1.88037 48.6074 0.376465 47.1143 0.376465 44.6113C0.376465 42.0977 1.90186 40.6152 3.93213 40.6152C5.65088 40.6152 6.98291 41.6143 7.21924 43.3438H5.81201ZM9.73291 45.084V48.5H8.35791V40.7227H9.70068V43.6553H9.77588C10.0444 43 10.603 42.5918 11.5054 42.5918C12.7192 42.5918 13.5142 43.376 13.5142 44.7832V48.5H12.1499V44.998C12.1499 44.2031 11.7202 43.752 11.0005 43.752C10.2593 43.752 9.73291 44.2354 9.73291 45.084ZM14.5454 46.8564C14.5454 45.5459 15.6304 45.1592 16.7153 45.0947C17.1182 45.0679 17.9561 45.0195 18.2085 45.0088V44.5469C18.2085 43.9668 17.8325 43.6338 17.1558 43.6338C16.5435 43.6338 16.1675 43.9131 16.0601 44.332H14.7388C14.8354 43.3438 15.7271 42.5918 17.188 42.5918C18.2944 42.5918 19.5728 43.043 19.5728 44.6006V48.5H18.2622V47.6943H18.2192C17.9614 48.1885 17.4136 48.6182 16.5005 48.6182C15.3833 48.6182 14.5454 48.0059 14.5454 46.8564ZM15.8667 46.8457C15.8667 47.3506 16.2749 47.6084 16.855 47.6084C17.6821 47.6084 18.2192 47.0605 18.2192 46.4053V45.9219L16.9302 46.0078C16.2749 46.0615 15.8667 46.3301 15.8667 46.8457ZM23.7729 42.667V43.7197H22.6235V46.749C22.6235 47.3076 22.9028 47.4258 23.2466 47.4258C23.4077 47.4258 23.6763 47.415 23.8481 47.4043V48.5215C23.687 48.5537 23.4185 48.5752 23.0747 48.5752C22.0435 48.5752 21.2485 48.0703 21.2593 46.9746V43.7197H20.4214V42.667H21.2593V41.2705H22.6235V42.667H23.7729ZM27.5005 48.5V40.7227H28.897V47.3184H32.3345V48.5H27.5005ZM33.3872 48.5V42.667H34.7622V48.5H33.3872ZM34.0854 41.8398C33.6558 41.8398 33.2905 41.5068 33.2905 41.0879C33.2905 40.6797 33.6558 40.3467 34.0854 40.3467C34.5259 40.3467 34.8804 40.6797 34.8804 41.0879C34.8804 41.5068 34.5259 41.8398 34.0854 41.8398ZM39.3813 44.332C39.2954 43.8916 38.9302 43.6123 38.3501 43.6123C37.7593 43.6123 37.3296 43.9023 37.3403 44.2998C37.3296 44.6006 37.5767 44.8262 38.1675 44.9658L39.1558 45.1699C40.2622 45.417 40.7886 45.9219 40.7993 46.7598C40.7886 47.8555 39.8325 48.6182 38.3071 48.6182C36.8247 48.6182 35.9438 47.9521 35.8042 46.835H37.2007C37.2866 47.3291 37.6733 47.5762 38.3071 47.5762C38.9624 47.5762 39.4028 47.3076 39.4028 46.8779C39.4028 46.5449 39.1343 46.3301 38.5542 46.2012L37.6196 45.9971C36.5347 45.7822 35.9761 45.2129 35.9761 44.375C35.9761 43.3008 36.8999 42.5918 38.3286 42.5918C39.7251 42.5918 40.5845 43.2686 40.6812 44.332H39.3813ZM44.7524 42.667V43.7197H43.603V46.749C43.603 47.3076 43.8823 47.4258 44.2261 47.4258C44.3872 47.4258 44.6558 47.415 44.8276 47.4043V48.5215C44.6665 48.5537 44.3979 48.5752 44.0542 48.5752C43.0229 48.5752 42.228 48.0703 42.2388 46.9746V43.7197H41.4009V42.667H42.2388V41.2705H43.603V42.667H44.7524Z" fill="#7F7F7F"/>
</svg>
