
<svg width="45" height="52" viewBox="0 0 45 52" fill="none" xmlns="http://www.w3.org/2000/svg">
<path d="M16.5944 21.7288C16.5322 21.3282 16.5 20.9179 16.5 20.5C16.5 16.0817 20.1052 12.5 24.5526 12.5C28.9999 12.5 32.6052 16.0817 32.6052 20.5C32.6052 21.4981 32.4213 22.4535 32.0852 23.3345C32.0154 23.5175 31.9804 23.609 31.9646 23.6804C31.9489 23.7512 31.9428 23.801 31.9411 23.8735C31.9394 23.9466 31.9493 24.0272 31.9692 24.1883L32.3717 27.4585C32.4153 27.8125 32.4371 27.9895 32.3782 28.1182C32.3266 28.231 32.235 28.3205 32.1211 28.3695C31.9911 28.4254 31.8146 28.3995 31.4617 28.3478L28.2765 27.8809C28.1101 27.8565 28.027 27.8443 27.9512 27.8448C27.8763 27.8452 27.8245 27.8507 27.7511 27.8661C27.677 27.8817 27.5823 27.9172 27.393 27.9881C26.5097 28.319 25.5524 28.5 24.5526 28.5C24.1344 28.5 23.7237 28.4683 23.3227 28.4073M18.1316 32.5C21.0965 32.5 23.5 30.0376 23.5 27C23.5 23.9624 21.0965 21.5 18.1316 21.5C15.1667 21.5 12.7632 23.9624 12.7632 27C12.7632 27.6106 12.8603 28.1979 13.0395 28.7467C13.1153 28.9787 13.1532 29.0947 13.1657 29.1739C13.1786 29.2567 13.1809 29.3031 13.1761 29.3867C13.1714 29.4668 13.1514 29.5573 13.1113 29.7383L12.5 32.5L15.4948 32.091C15.6583 32.0687 15.74 32.0575 15.8114 32.058C15.8865 32.0585 15.9264 32.0626 16.0001 32.0773C16.0701 32.0912 16.1742 32.1279 16.3823 32.2014C16.9306 32.3949 17.5191 32.5 18.1316 32.5Z" stroke="#7F7F7F" stroke-width="1.5" stroke-linecap="round" stroke-linejoin="round"/>
<path d="M6.77344 42.6992C6.77344 44.1816 7.38574 45.707 8.76074 46.4268L8.08398 47.3076C7.17627 46.835 6.56934 45.9863 6.22559 44.9658C5.88184 46.0615 5.26953 47.0015 4.35645 47.5225L3.66895 46.6416C5.02246 45.8467 5.64551 44.2354 5.64551 42.6992V42.4307H3.94824V41.4531H5.64551V40.0889H6.77344V41.4531H8.44922V42.4307H6.77344V42.6992ZM12.2305 39.7451V49.4561H11.0918V44.5361H10.0928V48.9834H8.96484V39.917H10.0928V43.5479H11.0918V39.7451H12.2305ZM18.5469 40.4434V41.3887H15.0664V42.3125H18.2676V43.2471H15.0664V44.1816C16.8818 44.1924 17.9883 44.1655 19.2666 43.9453L19.3848 44.8906C17.9883 45.1162 16.7744 45.1592 14.6797 45.1484H13.8525V40.4434H18.5469ZM21.4043 39.7559V45.6748H20.2012V39.7559H21.4043ZM18.1279 45.8145C20.1689 45.8145 21.4473 46.4805 21.4473 47.6299C21.4473 48.7793 20.1689 49.4453 18.1279 49.4453C16.0547 49.4453 14.7979 48.7793 14.8086 47.6299C14.7979 46.4805 16.0547 45.8145 18.1279 45.8145ZM18.1279 46.7383C16.7529 46.7383 15.9902 47.0605 16.001 47.6299C15.9902 48.21 16.7529 48.5215 18.1279 48.5215C19.4707 48.5215 20.2549 48.21 20.2549 47.6299C20.2549 47.0605 19.4707 46.7383 18.1279 46.7383ZM30.5459 40.1426V43.5156H27.8389V44.5361H31.6738V45.5029H22.8223V44.5361H26.6357V43.5156H23.9395V40.1426H30.5459ZM25.0996 41.0771V42.5703H29.3643V41.0771H25.0996ZM30.5889 46.3193V49.4561H29.3965V47.2646H23.7998V46.3193H30.5889ZM41.1914 44.998V45.9648H32.3184V44.998H36.1641V44.1924H33.4463V41.6143H38.9033V40.8945H33.4141V39.96H40.0957V42.4844H34.6279V43.2578H40.2891V44.1924H37.3457V44.998H41.1914ZM40.1494 46.5771V49.3916H38.9463V47.5225H33.3066V46.5771H40.1494Z" fill="#7F7F7F"/>
</svg>
