<svg width="46" height="51" viewBox="0 0 46 51" fill="none" xmlns="http://www.w3.org/2000/svg">
<path d="M17.0944 21.2288C17.0322 20.8282 17 20.4179 17 20C17 15.5817 20.6052 12 25.0526 12C29.4999 12 33.1052 15.5817 33.1052 20C33.1052 20.9981 32.9213 21.9535 32.5852 22.8345C32.5154 23.0175 32.4804 23.109 32.4646 23.1804C32.4489 23.2512 32.4428 23.301 32.4411 23.3735C32.4394 23.4466 32.4493 23.5272 32.4692 23.6883L32.8717 26.9585C32.9153 27.3125 32.9371 27.4895 32.8782 27.6182C32.8266 27.731 32.735 27.8205 32.6211 27.8695C32.4911 27.9254 32.3146 27.8995 31.9617 27.8478L28.7765 27.3809C28.6101 27.3565 28.527 27.3443 28.4512 27.3448C28.3763 27.3452 28.3245 27.3507 28.2511 27.3661C28.177 27.3817 28.0823 27.4172 27.893 27.4881C27.0097 27.819 26.0524 28 25.0526 28C24.6344 28 24.2237 27.9683 23.8227 27.9073M18.6316 32C21.5965 32 24 29.5376 24 26.5C24 23.4624 21.5965 21 18.6316 21C15.6667 21 13.2632 23.4624 13.2632 26.5C13.2632 27.1106 13.3603 27.6979 13.5395 28.2467C13.6153 28.4787 13.6532 28.5947 13.6657 28.6739C13.6786 28.7567 13.6809 28.8031 13.6761 28.8867C13.6714 28.9668 13.6514 29.0573 13.6113 29.2383L13 32L15.9948 31.591C16.1583 31.5687 16.24 31.5575 16.3114 31.558C16.3865 31.5585 16.4264 31.5626 16.5001 31.5773C16.5701 31.5912 16.6742 31.6279 16.8823 31.7014C17.4306 31.8949 18.0191 32 18.6316 32Z" stroke="#33936D" stroke-width="1.5" stroke-linecap="round" stroke-linejoin="round"/>
<path d="M6.31201 42.8438C6.15088 41.9092 5.39893 41.3721 4.45361 41.3721C3.17529 41.3721 2.28369 42.3496 2.28369 44.1113C2.28369 45.8945 3.18604 46.8506 4.45361 46.8506C5.37744 46.8506 6.12939 46.335 6.31201 45.4219H7.71924C7.50439 46.915 6.27979 48.1074 4.43213 48.1074C2.38037 48.1074 0.876465 46.6143 0.876465 44.1113C0.876465 41.5977 2.40186 40.1152 4.43213 40.1152C6.15088 40.1152 7.48291 41.1143 7.71924 42.8438H6.31201ZM10.2329 44.584V48H8.85791V40.2227H10.2007V43.1553H10.2759C10.5444 42.5 11.103 42.0918 12.0054 42.0918C13.2192 42.0918 14.0142 42.876 14.0142 44.2832V48H12.6499V44.498C12.6499 43.7031 12.2202 43.252 11.5005 43.252C10.7593 43.252 10.2329 43.7354 10.2329 44.584ZM15.0454 46.3564C15.0454 45.0459 16.1304 44.6592 17.2153 44.5947C17.6182 44.5679 18.4561 44.5195 18.7085 44.5088V44.0469C18.7085 43.4668 18.3325 43.1338 17.6558 43.1338C17.0435 43.1338 16.6675 43.4131 16.5601 43.832H15.2388C15.3354 42.8438 16.2271 42.0918 17.688 42.0918C18.7944 42.0918 20.0728 42.543 20.0728 44.1006V48H18.7622V47.1943H18.7192C18.4614 47.6885 17.9136 48.1182 17.0005 48.1182C15.8833 48.1182 15.0454 47.5059 15.0454 46.3564ZM16.3667 46.3457C16.3667 46.8506 16.7749 47.1084 17.355 47.1084C18.1821 47.1084 18.7192 46.5605 18.7192 45.9053V45.4219L17.4302 45.5078C16.7749 45.5615 16.3667 45.8301 16.3667 46.3457ZM24.2729 42.167V43.2197H23.1235V46.249C23.1235 46.8076 23.4028 46.9258 23.7466 46.9258C23.9077 46.9258 24.1763 46.915 24.3481 46.9043V48.0215C24.187 48.0537 23.9185 48.0752 23.5747 48.0752C22.5435 48.0752 21.7485 47.5703 21.7593 46.4746V43.2197H20.9214V42.167H21.7593V40.7705H23.1235V42.167H24.2729ZM28.0005 48V40.2227H29.397V46.8184H32.8345V48H28.0005ZM33.8872 48V42.167H35.2622V48H33.8872ZM34.5854 41.3398C34.1558 41.3398 33.7905 41.0068 33.7905 40.5879C33.7905 40.1797 34.1558 39.8467 34.5854 39.8467C35.0259 39.8467 35.3804 40.1797 35.3804 40.5879C35.3804 41.0068 35.0259 41.3398 34.5854 41.3398ZM39.8813 43.832C39.7954 43.3916 39.4302 43.1123 38.8501 43.1123C38.2593 43.1123 37.8296 43.4023 37.8403 43.7998C37.8296 44.1006 38.0767 44.3262 38.6675 44.4658L39.6558 44.6699C40.7622 44.917 41.2886 45.4219 41.2993 46.2598C41.2886 47.3555 40.3325 48.1182 38.8071 48.1182C37.3247 48.1182 36.4438 47.4521 36.3042 46.335H37.7007C37.7866 46.8291 38.1733 47.0762 38.8071 47.0762C39.4624 47.0762 39.9028 46.8076 39.9028 46.3779C39.9028 46.0449 39.6343 45.8301 39.0542 45.7012L38.1196 45.4971C37.0347 45.2822 36.4761 44.7129 36.4761 43.875C36.4761 42.8008 37.3999 42.0918 38.8286 42.0918C40.2251 42.0918 41.0845 42.7686 41.1812 43.832H39.8813ZM45.2524 42.167V43.2197H44.103V46.249C44.103 46.8076 44.3823 46.9258 44.7261 46.9258C44.8872 46.9258 45.1558 46.915 45.3276 46.9043V48.0215C45.1665 48.0537 44.8979 48.0752 44.5542 48.0752C43.5229 48.0752 42.728 47.5703 42.7388 46.4746V43.2197H41.9009V42.167H42.7388V40.7705H44.103V42.167H45.2524Z" fill="#33936D"/>
</svg>
