<svg width="29" height="29" viewBox="0 0 29 29" fill="none" xmlns="http://www.w3.org/2000/svg">
<path fill-rule="evenodd" clip-rule="evenodd" d="M24.8069 5.47377C24.967 5.30197 25.0541 5.07475 25.05 4.83997C25.0458 4.60519 24.9507 4.38118 24.7847 4.21514C24.6187 4.0491 24.3946 3.95399 24.1599 3.94985C23.9251 3.94571 23.6979 4.03285 23.5261 4.19293L4.19274 23.5263C4.1037 23.6092 4.03228 23.7093 3.98275 23.8205C3.93322 23.9316 3.90658 24.0516 3.90444 24.1733C3.90229 24.295 3.92467 24.4159 3.97025 24.5287C4.01583 24.6415 4.08368 24.7441 4.16973 24.8301C4.25579 24.9162 4.3583 24.984 4.47114 25.0296C4.58398 25.0752 4.70485 25.0975 4.82653 25.0954C4.94822 25.0933 5.06822 25.0666 5.17939 25.0171C5.29055 24.9676 5.3906 24.8961 5.47357 24.8071L8.91369 21.367C10.5655 22.1451 12.4662 22.6563 14.4998 22.6563C17.743 22.6563 20.6502 21.3549 22.7407 19.7502C23.7883 18.9467 24.6534 18.0501 25.2649 17.1692C25.8594 16.3125 26.2811 15.3736 26.2811 14.5C26.2811 13.6264 25.8582 12.6875 25.2649 11.8308C24.6534 10.9499 23.7883 10.0546 22.7419 9.24981C22.4245 9.00573 22.0894 8.77091 21.7365 8.54535L24.8069 5.47377ZM20.4207 9.86123L18.2807 12.0012C18.8576 12.8726 19.1156 13.9166 19.011 14.9564C18.9064 15.9962 18.4456 16.9678 17.7066 17.7068C16.9677 18.4458 15.996 18.9066 14.9562 19.0112C13.9164 19.1158 12.8724 18.8578 12.001 18.2809L10.2888 19.9919C11.6246 20.544 13.0544 20.8333 14.4998 20.8438C17.2633 20.8438 19.7923 19.7285 21.6374 18.3123C22.5582 17.6054 23.2856 16.8406 23.7762 16.1361C24.2825 15.4063 24.4686 14.8347 24.4686 14.5C24.4686 14.1653 24.2825 13.5938 23.7762 12.8639C23.2856 12.1595 22.5582 11.3946 21.6374 10.6877C21.2588 10.3969 20.854 10.1214 20.4207 9.86123ZM13.3265 16.9541C13.8339 17.1964 14.4038 17.2755 14.958 17.1804C15.5121 17.0854 16.0231 16.8208 16.4207 16.4233C16.8182 16.0257 17.0827 15.5147 17.1778 14.9606C17.2729 14.4064 17.1938 13.8365 16.9515 13.3291L13.3265 16.9541Z" fill="#B8B8B8"/>
<path d="M14.5 6.34375C15.747 6.34375 16.9457 6.53708 18.0658 6.86454C18.1148 6.87917 18.1592 6.90637 18.1945 6.94344C18.2298 6.9805 18.2548 7.02615 18.267 7.07585C18.2792 7.12555 18.2782 7.17758 18.2641 7.22678C18.25 7.27598 18.2233 7.32064 18.1866 7.35633L17.191 8.35321C17.1543 8.39027 17.1086 8.41721 17.0584 8.4314C17.0082 8.44559 16.9552 8.44654 16.9046 8.43417C16.1159 8.25234 15.3094 8.15912 14.5 8.15625C11.7365 8.15625 9.2075 9.27154 7.36238 10.6877C6.44163 11.3946 5.71421 12.1595 5.22363 12.8639C4.71733 13.5938 4.53125 14.1653 4.53125 14.5C4.53125 14.8347 4.71733 15.4063 5.22363 16.1361C5.65138 16.7523 6.26037 17.4133 7.02162 18.0416C7.16179 18.1564 7.17508 18.3679 7.04579 18.4972L6.19029 19.3539C6.1379 19.407 6.06743 19.4385 5.99288 19.4421C5.91833 19.4457 5.84517 19.4211 5.78792 19.3732C5.00976 18.7319 4.3195 17.9909 3.73496 17.1692C3.14167 16.3125 2.71875 15.3736 2.71875 14.5C2.71875 13.6264 3.14167 12.6875 3.73496 11.8308C4.34638 10.9499 5.21154 10.0545 6.25796 9.24979C8.34958 7.64513 11.2568 6.34375 14.5 6.34375Z" fill="#B8B8B8"/>
<path d="M14.5006 9.96875C14.6439 9.96875 14.7853 9.97519 14.9247 9.98808C15.1627 10.011 15.2485 10.295 15.0806 10.4642L13.6149 11.9287C13.2247 12.0639 12.8704 12.2859 12.5784 12.5778C12.2864 12.8698 12.0645 13.2242 11.9292 13.6143L10.4647 15.08C10.2956 15.2492 10.0116 15.1622 9.98864 14.9241C9.92959 14.296 10.0023 13.6625 10.2022 13.0642C10.4021 12.4658 10.7248 11.9158 11.1495 11.4493C11.5742 10.9829 12.0917 10.6102 12.6687 10.3553C13.2458 10.1003 13.8697 9.96867 14.5006 9.96875Z" fill="#B8B8B8"/>
</svg>
