<svg width="29" height="29" viewBox="0 0 29 29" fill="none" xmlns="http://www.w3.org/2000/svg">
<path fill-rule="evenodd" clip-rule="evenodd" d="M9.96875 14.5C9.96875 13.2982 10.4461 12.1457 11.2959 11.2959C12.1457 10.4461 13.2982 9.96875 14.5 9.96875C15.7018 9.96875 16.8543 10.4461 17.7041 11.2959C18.5539 12.1457 19.0313 13.2982 19.0313 14.5C19.0313 15.7018 18.5539 16.8543 17.7041 17.7041C16.8543 18.5539 15.7018 19.0313 14.5 19.0313C13.2982 19.0313 12.1457 18.5539 11.2959 17.7041C10.4461 16.8543 9.96875 15.7018 9.96875 14.5ZM14.5 11.7813C13.7789 11.7813 13.0874 12.0677 12.5776 12.5776C12.0677 13.0874 11.7813 13.7789 11.7813 14.5C11.7813 15.2211 12.0677 15.9126 12.5776 16.4224C13.0874 16.9323 13.7789 17.2188 14.5 17.2188C15.2211 17.2188 15.9126 16.9323 16.4224 16.4224C16.9323 15.9126 17.2188 15.2211 17.2188 14.5C17.2188 13.7789 16.9323 13.0874 16.4224 12.5776C15.9126 12.0677 15.2211 11.7813 14.5 11.7813Z" fill="#B8B8B8"/>
<path fill-rule="evenodd" clip-rule="evenodd" d="M5.22363 12.8639C4.71733 13.5938 4.53125 14.1653 4.53125 14.5C4.53125 14.8347 4.71733 15.4063 5.22363 16.1361C5.71421 16.8405 6.44163 17.6054 7.36238 18.3123C9.2075 19.7285 11.7365 20.8438 14.5 20.8438C17.2635 20.8438 19.7925 19.7285 21.6376 18.3123C22.5584 17.6054 23.2858 16.8405 23.7764 16.1361C24.2827 15.4063 24.4688 14.8347 24.4688 14.5C24.4688 14.1653 24.2827 13.5938 23.7764 12.8639C23.2858 12.1595 22.5584 11.3946 21.6376 10.6877C19.7925 9.27154 17.2635 8.15625 14.5 8.15625C11.7365 8.15625 9.2075 9.27154 7.36238 10.6877C6.44163 11.3946 5.71421 12.1595 5.22363 12.8639ZM6.25796 9.24979C8.34958 7.64513 11.2568 6.34375 14.5 6.34375C17.7432 6.34375 20.6504 7.64513 22.7408 9.24979C23.7885 10.0533 24.6536 10.9499 25.265 11.8308C25.8595 12.6875 26.2813 13.6264 26.2813 14.5C26.2813 15.3736 25.8583 16.3125 25.265 17.1692C24.6536 18.0501 23.7885 18.9455 22.742 19.7502C20.6516 21.3549 17.7432 22.6563 14.5 22.6563C11.2568 22.6563 8.34958 21.3549 6.25917 19.7502C5.21154 18.9467 4.34638 18.0501 3.73496 17.1692C3.14167 16.3125 2.71875 15.3736 2.71875 14.5C2.71875 13.6264 3.14167 12.6875 3.73496 11.8308C4.34638 10.9499 5.21154 10.0545 6.25796 9.24979Z" fill="#B8B8B8"/>
</svg>
