<svg width="58" height="57" viewBox="0 0 58 57" fill="none" xmlns="http://www.w3.org/2000/svg">
<g clip-path="url(#clip0_568_6239)">
<path d="M33.2939 15.3906H12.7656C8.82789 15.3906 5.41524 18.1282 4.57521 21.9759L0.20252 41.8668C-0.945029 47.102 3.03764 52.0597 8.39287 52.0597H29.6863L33.0914 56.2599C33.6615 56.9574 34.7865 56.6874 34.974 55.8099L35.784 52.0672L41.4918 25.5611C42.6168 20.3333 38.6342 15.4056 33.2939 15.4056V15.3906Z" fill="#CAF3E5"/>
<path d="M48.4446 32.3789H29.8813C29.0338 32.3789 28.3963 31.5913 28.5838 30.7663L29.1688 28.1187C29.3038 27.5112 29.8438 27.0761 30.4664 27.0761H53.7699C54.3924 27.0761 54.9324 26.6411 55.0674 26.0336L56.0725 21.4509C56.2525 20.6184 55.6224 19.8383 54.7749 19.8383H32.904C32.0564 19.8383 31.4189 19.0508 31.6064 18.2258L32.1914 15.5781C32.3264 14.9706 32.8665 14.5356 33.489 14.5356H56.5225C57.145 14.5356 57.685 14.1006 57.82 13.4931C58.8326 8.89536 55.3299 4.53767 50.6197 4.53767H28.0663L24.7361 0.42749C24.1361 -0.307541 22.951 -0.0225289 22.756 0.900011L21.976 4.53017L16.0057 32.2664C15.0157 36.8566 18.5183 41.1917 23.2135 41.1917H45.812C49.2772 41.1917 52.2698 38.7841 53.0123 35.4015L53.3198 33.9989C53.4999 33.1664 52.8698 32.3864 52.0223 32.3864H48.4521L48.4446 32.3789Z" fill="url(#paint0_linear_568_6239)"/>
</g>
<defs>
<linearGradient id="paint0_linear_568_6239" x1="36.9164" y1="0.0102539" x2="36.9164" y2="67" gradientUnits="userSpaceOnUse">
<stop stop-color="#33936D"/>
<stop offset="1" stop-color="#102D21"/>
</linearGradient>
<clipPath id="clip0_568_6239">
<rect width="58" height="56.6499" fill="white"/>
</clipPath>
</defs>
</svg>
