<svg width="47" height="52" viewBox="0 0 47 52" fill="none" xmlns="http://www.w3.org/2000/svg">
<g clip-path="url(#clip0_70_1438)">
<path d="M23.4999 25.5C20.3298 25.5 17.5106 27.0306 15.7158 29.406C15.3296 29.9172 15.1364 30.1728 15.1427 30.5183C15.1476 30.7852 15.3152 31.1219 15.5252 31.2867C15.797 31.5 16.1737 31.5 16.9271 31.5H30.0726C30.826 31.5 31.2027 31.5 31.4745 31.2867C31.6845 31.1219 31.8521 30.7852 31.857 30.5183C31.8633 30.1728 31.6701 29.9172 31.2839 29.406C29.4891 27.0306 26.6699 25.5 23.4999 25.5Z" stroke="#33936D" stroke-width="1.5" stroke-linecap="round" stroke-linejoin="round"/>
<path d="M23.4999 22.5C25.9851 22.5 27.9999 20.4853 27.9999 18C27.9999 15.5147 25.9851 13.5 23.4999 13.5C21.0146 13.5 18.9999 15.5147 18.9999 18C18.9999 20.4853 21.0146 22.5 23.4999 22.5Z" stroke="#33936D" stroke-width="1.5" stroke-linecap="round" stroke-linejoin="round"/>
</g>
<path d="M4.99741 48.049H0.393822V41.6906H4.99741V48.049ZM3.80473 47.0919V42.6288H1.56751V47.0919H3.80473ZM6.46357 40.7486H7.66005V44.4786H9.1566V45.4814H7.66005V50.4496H6.46357V40.7486ZM17.6417 50.4724H16.4376V40.7486H17.6417V50.4724ZM9.87407 44.8812C9.87407 44.195 9.98169 43.5936 10.1969 43.077C10.4147 42.5579 10.7148 42.1578 11.0971 41.8767C11.482 41.5931 11.9201 41.4513 12.4114 41.4513C12.895 41.4513 13.328 41.5931 13.7104 41.8767C14.0953 42.1578 14.3954 42.5579 14.6106 43.077C14.8284 43.5936 14.9373 44.195 14.9373 44.8812C14.9373 45.5725 14.8284 46.179 14.6106 46.7006C14.3954 47.2197 14.0953 47.6198 13.7104 47.9009C13.328 48.1794 12.895 48.3187 12.4114 48.3187C11.9201 48.3187 11.482 48.1794 11.0971 47.9009C10.7122 47.6198 10.4122 47.2197 10.1969 46.7006C9.98169 46.179 9.87407 45.5725 9.87407 44.8812ZM11.025 44.8812C11.025 45.3699 11.0819 45.7928 11.1959 46.1499C11.3124 46.5044 11.4744 46.7753 11.6821 46.9627C11.8923 47.1476 12.1353 47.24 12.4114 47.24C12.6823 47.24 12.9203 47.1463 13.1255 46.9589C13.3331 46.7715 13.4939 46.5006 13.6078 46.1461C13.7243 45.7916 13.7826 45.3699 13.7826 44.8812C13.7826 44.395 13.7243 43.9759 13.6078 43.624C13.4939 43.2695 13.3331 42.9985 13.1255 42.8111C12.9203 42.6237 12.6823 42.53 12.4114 42.53C12.1353 42.53 11.8923 42.6237 11.6821 42.8111C11.4744 42.9985 11.3124 43.2695 11.1959 43.624C11.0819 43.9759 11.025 44.395 11.025 44.8812ZM27.5056 50.4496H26.3585V40.7486H27.5056V50.4496ZM18.9631 47.183C19.3353 47.183 19.6278 47.1817 19.8405 47.1792V42.8643H19.1568V41.8995H23.6009V42.8643H22.9172V47.0501C23.2464 47.0222 23.535 46.9906 23.7832 46.9551L23.8629 47.8173C22.7159 48.0528 21.1281 48.1706 19.0998 48.1706L18.9631 47.183ZM20.9116 47.1564C21.2206 47.1488 21.5244 47.1374 21.8232 47.1222V42.8643H20.9116V47.1564ZM23.3578 44.3343H24.4327V40.9537H25.5646V49.971H24.4327V45.4016H23.3578V44.3343ZM36.6554 50.4724H35.4513V40.7486H36.6554V50.4724ZM28.8877 44.8812C28.8877 44.195 28.9954 43.5936 29.2106 43.077C29.4284 42.5579 29.7284 42.1578 30.1108 41.8767C30.4957 41.5931 30.9338 41.4513 31.425 41.4513C31.9087 41.4513 32.3417 41.5931 32.7241 41.8767C33.109 42.1578 33.409 42.5579 33.6243 43.077C33.842 43.5936 33.9509 44.195 33.9509 44.8812C33.9509 45.5725 33.842 46.179 33.6243 46.7006C33.409 47.2197 33.109 47.6198 32.7241 47.9009C32.3417 48.1794 31.9087 48.3187 31.425 48.3187C30.9338 48.3187 30.4957 48.1794 30.1108 47.9009C29.7259 47.6198 29.4258 47.2197 29.2106 46.7006C28.9954 46.179 28.8877 45.5725 28.8877 44.8812ZM30.0386 44.8812C30.0386 45.3699 30.0956 45.7928 30.2096 46.1499C30.326 46.5044 30.4881 46.7753 30.6958 46.9627C30.9059 47.1476 31.149 47.24 31.425 47.24C31.696 47.24 31.934 47.1463 32.1391 46.9589C32.3468 46.7715 32.5076 46.5006 32.6215 46.1461C32.738 45.7916 32.7962 45.3699 32.7962 44.8812C32.7962 44.395 32.738 43.9759 32.6215 43.624C32.5076 43.2695 32.3468 42.9985 32.1391 42.8111C31.934 42.6237 31.696 42.53 31.425 42.53C31.149 42.53 30.9059 42.6237 30.6958 42.8111C30.4881 42.9985 30.326 43.2695 30.2096 43.624C30.0956 43.9759 30.0386 44.395 30.0386 44.8812ZM41.7485 43.5024C41.7485 44.0367 41.8485 44.566 42.0486 45.0901C42.2512 45.6118 42.5411 46.079 42.9184 46.4917C43.2957 46.9019 43.7376 47.2134 44.244 47.4261L43.5945 48.3681C43.0324 48.125 42.5424 47.7642 42.1245 47.2856C41.7093 46.8044 41.3877 46.2486 41.1598 45.6181C40.9319 46.2993 40.6077 46.9032 40.1874 47.4299C39.7696 47.9541 39.2821 48.3478 38.725 48.6112L38.0375 47.6692C38.5338 47.4413 38.9707 47.1058 39.348 46.6626C39.7253 46.2195 40.0165 45.7206 40.2216 45.1661C40.4267 44.6115 40.5305 44.057 40.533 43.5024V42.6858H38.3946V41.7058H43.868V42.6858H41.7485V43.5024ZM44.9581 40.7486H46.1622V50.4496H44.9581V40.7486Z" fill="#33936D"/>
<defs>
<clipPath id="clip0_70_1438">
<rect width="24" height="24" fill="white" transform="translate(11.5 10.5)"/>
</clipPath>
</defs>
</svg>
