<svg width="44" height="51" viewBox="0 0 44 51" fill="none" xmlns="http://www.w3.org/2000/svg">
<g clip-path="url(#clip0_577_6151)">
<path d="M21.9999 25C18.8298 25 16.0106 26.5306 14.2158 28.906C13.8296 29.4172 13.6364 29.6728 13.6427 30.0183C13.6476 30.2852 13.8152 30.6219 14.0252 30.7867C14.297 31 14.6737 31 15.4271 31H28.5726C29.326 31 29.7027 31 29.9745 30.7867C30.1845 30.6219 30.3521 30.2852 30.357 30.0183C30.3633 29.6728 30.1701 29.4172 29.7839 28.906C27.9891 26.5306 25.1699 25 21.9999 25Z" stroke="#33936D" stroke-width="1.5" stroke-linecap="round" stroke-linejoin="round"/>
<path d="M21.9999 22C24.4851 22 26.4999 19.9853 26.4999 17.5C26.4999 15.0147 24.4851 13 21.9999 13C19.5146 13 17.4999 15.0147 17.4999 17.5C17.4999 19.9853 19.5146 22 21.9999 22Z" stroke="#33936D" stroke-width="1.5" stroke-linecap="round" stroke-linejoin="round"/>
</g>
<path d="M2.15918 40.2227H3.87793L6.1875 45.873H6.28418L8.59375 40.2227H10.3125V48H8.96973V42.6504H8.89453L6.73535 47.9785H5.73633L3.57715 42.6289H3.5127V48H2.15918V40.2227ZM12.5146 50.1914C12.2461 50.1914 11.9775 50.1807 11.8057 50.1592V49.0635C11.9775 49.0742 12.2031 49.085 12.3857 49.085C12.7188 49.085 12.998 49.0527 13.2344 48.4297L13.3525 48.1182L11.2256 42.167H12.6758L14.0293 46.5713H14.0938L15.4473 42.167H16.8975L14.5557 48.709C14.2227 49.6436 13.6104 50.1914 12.5146 50.1914ZM17.7568 50.1914V42.167H19.0996V43.123H19.1855C19.4004 42.7041 19.8301 42.0918 20.8613 42.0918C22.2041 42.0918 23.2676 43.1445 23.2676 45.0889C23.2676 47.0117 22.2363 48.1074 20.8613 48.1074C19.8516 48.1074 19.4004 47.5059 19.1855 47.0762H19.1318V50.1914H17.7568ZM19.0996 45.0781C19.0996 46.2168 19.5938 46.9795 20.4854 46.9795C21.3877 46.9795 21.8711 46.1846 21.8711 45.0781C21.8711 43.9932 21.3984 43.209 20.4854 43.209C19.5938 43.209 19.0996 43.9502 19.0996 45.0781ZM24.0732 46.3564C24.0732 45.0459 25.1582 44.6592 26.2432 44.5947C26.646 44.5679 27.4839 44.5195 27.7363 44.5088V44.0469C27.7363 43.4668 27.3604 43.1338 26.6836 43.1338C26.0713 43.1338 25.6953 43.4131 25.5879 43.832H24.2666C24.3633 42.8438 25.2549 42.0918 26.7158 42.0918C27.8223 42.0918 29.1006 42.543 29.1006 44.1006V48H27.79V47.1943H27.7471C27.4893 47.6885 26.9414 48.1182 26.0283 48.1182C24.9111 48.1182 24.0732 47.5059 24.0732 46.3564ZM25.3945 46.3457C25.3945 46.8506 25.8027 47.1084 26.3828 47.1084C27.21 47.1084 27.7471 46.5605 27.7471 45.9053V45.4219L26.458 45.5078C25.8027 45.5615 25.3945 45.8301 25.3945 46.3457ZM32.9355 50.3096C31.3887 50.3096 30.4111 49.6221 30.3145 48.5264H31.6787C31.7754 49.0312 32.2588 49.2783 32.957 49.2783C33.7734 49.2783 34.3105 48.9238 34.3105 48.0645V46.9473H34.2461C34.0312 47.377 33.5693 47.9141 32.5596 47.9141C31.2168 47.9141 30.1533 46.9365 30.1533 45.0352C30.1533 43.1123 31.2168 42.0918 32.5703 42.0918C33.6016 42.0918 34.0312 42.7041 34.2461 43.123H34.3105V42.167H35.6641V48.0967C35.6641 49.5898 34.5146 50.3096 32.9355 50.3096ZM32.9355 46.8398C33.8164 46.8398 34.3213 46.1738 34.3213 45.0566C34.3213 43.9502 33.8271 43.209 32.9355 43.209C32.0225 43.209 31.5498 43.9932 31.5498 45.0566C31.5498 46.1309 32.0332 46.8398 32.9355 46.8398ZM39.5635 48.1182C37.8018 48.1182 36.7275 46.9473 36.7275 45.1211C36.7275 43.3164 37.8232 42.0918 39.4883 42.0918C40.917 42.0918 42.1523 42.9834 42.1523 45.0352V45.4648H38.0811C38.0972 46.4585 38.6826 47.0439 39.5742 47.0439C40.1758 47.0439 40.584 46.7861 40.7559 46.4424H42.0986C41.8516 47.4521 40.917 48.1182 39.5635 48.1182ZM38.0918 44.5303H40.8418C40.8311 43.7354 40.3047 43.1553 39.5098 43.1553C38.6826 43.1553 38.1348 43.7837 38.0918 44.5303Z" fill="#33936D"/>
<defs>
<clipPath id="clip0_577_6151">
<rect width="24" height="24" fill="white" transform="translate(10 10)"/>
</clipPath>
</defs>
</svg>
