<svg width="47" height="52" viewBox="0 0 47 52" fill="none" xmlns="http://www.w3.org/2000/svg">
<g clip-path="url(#clip0_70_1414)">
<path d="M23.4999 25.5C20.3298 25.5 17.5106 27.0306 15.7158 29.406C15.3296 29.9172 15.1364 30.1728 15.1427 30.5183C15.1476 30.7852 15.3152 31.1219 15.5252 31.2867C15.797 31.5 16.1737 31.5 16.9271 31.5H30.0726C30.826 31.5 31.2027 31.5 31.4745 31.2867C31.6845 31.1219 31.8521 30.7852 31.857 30.5183C31.8633 30.1728 31.6701 29.9172 31.2839 29.406C29.4891 27.0306 26.6699 25.5 23.4999 25.5Z" stroke="#7F7F7F" stroke-width="1.5" stroke-linecap="round" stroke-linejoin="round"/>
<path d="M23.4999 22.5C25.9851 22.5 27.9999 20.4853 27.9999 18C27.9999 15.5147 25.9851 13.5 23.4999 13.5C21.0146 13.5 18.9999 15.5147 18.9999 18C18.9999 20.4853 21.0146 22.5 23.4999 22.5Z" stroke="#7F7F7F" stroke-width="1.5" stroke-linecap="round" stroke-linejoin="round"/>
</g>
<path d="M4.99658 40.6904V47.0498H0.398926V40.6904H4.99658ZM1.56982 41.625V46.0938H3.8042V41.625H1.56982ZM7.66064 39.7451V43.4727H9.15381V44.4824H7.66064V49.4561H6.46826V39.7451H7.66064ZM17.6401 39.7451V49.4668H16.437V39.7451H17.6401ZM12.4087 40.4541C13.8696 40.4541 14.9331 41.7861 14.9438 43.8809C14.9331 45.9971 13.8696 47.3184 12.4087 47.3184C10.937 47.3184 9.87354 45.9971 9.87354 43.8809C9.87354 41.7861 10.937 40.4541 12.4087 40.4541ZM12.4087 41.5283C11.5815 41.5283 11.0229 42.3984 11.0229 43.8809C11.0229 45.374 11.5815 46.2441 12.4087 46.2441C13.2251 46.2441 13.7837 45.374 13.7837 43.8809C13.7837 42.3984 13.2251 41.5283 12.4087 41.5283ZM27.5015 39.7451V49.4561H26.3628V39.7451H27.5015ZM25.5679 39.9492V48.9727H24.4292V44.3965H23.355V43.333H24.4292V39.9492H25.5679ZM23.6021 40.8945V41.8613H22.9146V46.0508C23.2207 46.0239 23.5107 45.9917 23.7847 45.9541L23.8599 46.8242C22.3345 47.1357 20.3364 47.168 19.1011 47.168L18.9614 46.1797L19.8423 46.1689V41.8613H19.1548V40.8945H23.6021ZM20.9165 46.1475L21.8188 46.1152V41.8613H20.9165V46.1475ZM36.6538 39.7451V49.4668H35.4507V39.7451H36.6538ZM31.4224 40.4541C32.8833 40.4541 33.9468 41.7861 33.9575 43.8809C33.9468 45.9971 32.8833 47.3184 31.4224 47.3184C29.9507 47.3184 28.8872 45.9971 28.8872 43.8809C28.8872 41.7861 29.9507 40.4541 31.4224 40.4541ZM31.4224 41.5283C30.5952 41.5283 30.0366 42.3984 30.0366 43.8809C30.0366 45.374 30.5952 46.2441 31.4224 46.2441C32.2388 46.2441 32.7974 45.374 32.7974 43.8809C32.7974 42.3984 32.2388 41.5283 31.4224 41.5283ZM41.7456 42.5059C41.7456 44.0957 42.6802 45.7715 44.2485 46.4268L43.5933 47.3721C42.4438 46.8779 41.606 45.8574 41.1655 44.6221C40.7144 45.9541 39.8657 47.0713 38.7271 47.6084L38.0396 46.6738C39.5757 45.9648 40.5317 44.1602 40.5317 42.5059V41.6895H38.394V40.7012H43.8726V41.6895H41.7456V42.5059ZM46.1606 39.7451V49.4561H44.9575V39.7451H46.1606Z" fill="#7F7F7F"/>
<defs>
<clipPath id="clip0_70_1414">
<rect width="24" height="24" fill="white" transform="translate(11.5 10.5)"/>
</clipPath>
</defs>
</svg>
