<svg width="45" height="52" viewBox="0 0 45 52" fill="none" xmlns="http://www.w3.org/2000/svg">
<path d="M13.576 17.9828L17.864 21.0457C18.0872 21.205 18.1987 21.2847 18.3155 21.3031C18.4182 21.3192 18.5234 21.3029 18.6165 21.2565C18.7222 21.2037 18.8045 21.094 18.969 20.8747L19.8751 19.6665C19.9216 19.6045 19.9449 19.5735 19.9722 19.5467C19.9965 19.523 20.0232 19.5017 20.0517 19.4834C20.0839 19.4627 20.1193 19.447 20.1902 19.4155L24.0588 17.6961C24.2192 17.6248 24.2993 17.5892 24.3598 17.5335C24.4133 17.4843 24.4554 17.424 24.4832 17.3568C24.5146 17.2809 24.5204 17.1934 24.5321 17.0183L24.8154 12.7694M24 24L26.616 25.1211C26.9195 25.2512 27.0713 25.3163 27.1517 25.4243C27.2222 25.5191 27.2569 25.6358 27.2496 25.7537C27.2413 25.8881 27.1497 26.0255 26.9665 26.3002L25.7375 28.1438C25.6507 28.274 25.6072 28.3391 25.5499 28.3863C25.4991 28.428 25.4406 28.4593 25.3777 28.4784C25.3067 28.5 25.2284 28.5 25.0719 28.5H23.0766C22.8693 28.5 22.7656 28.5 22.6774 28.4653C22.5995 28.4347 22.5305 28.385 22.4768 28.3208C22.416 28.2481 22.3832 28.1497 22.3177 27.953L21.6048 25.8144C21.5661 25.6983 21.5468 25.6403 21.5417 25.5814C21.5372 25.5291 21.5409 25.4764 21.5528 25.4253C21.5662 25.3677 21.5935 25.313 21.6482 25.2036L22.1897 24.1206C22.2997 23.9005 22.3547 23.7905 22.4395 23.7222C22.5141 23.662 22.6046 23.6246 22.6999 23.6143C22.8081 23.6027 22.9248 23.6416 23.1582 23.7194L24 24ZM32.5 22.5C32.5 28.0228 28.0228 32.5 22.5 32.5C16.9772 32.5 12.5 28.0228 12.5 22.5C12.5 16.9772 16.9772 12.5 22.5 12.5C28.0228 12.5 32.5 16.9772 32.5 22.5Z" stroke="#33936D" stroke-width="1.5" stroke-linecap="round" stroke-linejoin="round"/>
<path d="M4.22217 48.5V40.7227H9.20654V41.8936H5.61865V44.0205H8.86279V45.1914H5.61865V48.5H4.22217ZM10.2378 48.5V42.667H11.5698V43.6338H11.6343C11.8384 42.9678 12.4077 42.5811 13.0737 42.5811C13.2241 42.5811 13.439 42.5918 13.5679 42.6133V43.8809C13.4497 43.8379 13.1597 43.7949 12.9341 43.7949C12.1714 43.7949 11.6128 44.3213 11.6128 45.0625V48.5H10.2378ZM14.3843 48.5V42.667H15.7593V48.5H14.3843ZM15.0825 41.8398C14.6528 41.8398 14.2876 41.5068 14.2876 41.0879C14.2876 40.6797 14.6528 40.3467 15.0825 40.3467C15.5229 40.3467 15.8774 40.6797 15.8774 41.0879C15.8774 41.5068 15.5229 41.8398 15.0825 41.8398ZM19.6587 48.6182C17.897 48.6182 16.8228 47.4473 16.8228 45.6211C16.8228 43.8164 17.9185 42.5918 19.5835 42.5918C21.0122 42.5918 22.2476 43.4834 22.2476 45.5352V45.9648H18.1763C18.1924 46.9585 18.7778 47.5439 19.6694 47.5439C20.271 47.5439 20.6792 47.2861 20.8511 46.9424H22.1938C21.9468 47.9521 21.0122 48.6182 19.6587 48.6182ZM18.187 45.0303H20.937C20.9263 44.2354 20.3999 43.6553 19.605 43.6553C18.7778 43.6553 18.23 44.2837 18.187 45.0303ZM24.686 45.084V48.5H23.311V42.667H24.6216V43.6553H24.6968C24.9653 43 25.5562 42.5918 26.4263 42.5918C27.6401 42.5918 28.4351 43.3867 28.4243 44.7832V48.5H27.0601V44.998C27.0601 44.2139 26.6411 43.752 25.9214 43.752C25.1909 43.752 24.686 44.2354 24.686 45.084ZM31.9048 48.6074C30.5298 48.6074 29.4985 47.5117 29.4985 45.5889C29.4985 43.6445 30.562 42.5918 31.9155 42.5918C32.9468 42.5918 33.3765 43.2041 33.5806 43.623H33.6343V40.7227H34.9985V48.5H33.6558V47.5762H33.5806C33.3657 48.0059 32.9146 48.6074 31.9048 48.6074ZM32.2808 47.4795C33.1616 47.4795 33.6665 46.7168 33.6665 45.5781C33.6665 44.4502 33.1724 43.709 32.2808 43.709C31.3677 43.709 30.895 44.4932 30.895 45.5781C30.895 46.6846 31.3784 47.4795 32.2808 47.4795ZM39.6929 44.332C39.6069 43.8916 39.2417 43.6123 38.6616 43.6123C38.0708 43.6123 37.6411 43.9023 37.6519 44.2998C37.6411 44.6006 37.8882 44.8262 38.479 44.9658L39.4673 45.1699C40.5737 45.417 41.1001 45.9219 41.1108 46.7598C41.1001 47.8555 40.144 48.6182 38.6187 48.6182C37.1362 48.6182 36.2554 47.9521 36.1157 46.835H37.5122C37.5981 47.3291 37.9849 47.5762 38.6187 47.5762C39.2739 47.5762 39.7144 47.3076 39.7144 46.8779C39.7144 46.5449 39.4458 46.3301 38.8657 46.2012L37.9312 45.9971C36.8462 45.7822 36.2876 45.2129 36.2876 44.375C36.2876 43.3008 37.2114 42.5918 38.6401 42.5918C40.0366 42.5918 40.896 43.2686 40.9927 44.332H39.6929Z" fill="#33936D"/>
</svg>
