<svg width="44" height="51" viewBox="0 0 44 51" fill="none" xmlns="http://www.w3.org/2000/svg">
<path d="M13.076 17.4828L17.364 20.5457C17.5872 20.705 17.6987 20.7847 17.8155 20.8031C17.9182 20.8192 18.0234 20.8029 18.1165 20.7565C18.2222 20.7037 18.3045 20.594 18.469 20.3747L19.3751 19.1665C19.4216 19.1045 19.4449 19.0735 19.4722 19.0467C19.4965 19.023 19.5232 19.0017 19.5517 18.9834C19.5839 18.9627 19.6193 18.947 19.6902 18.9155L23.5588 17.1961C23.7192 17.1248 23.7993 17.0892 23.8598 17.0335C23.9133 16.9843 23.9554 16.924 23.9832 16.8568C24.0146 16.7809 24.0204 16.6934 24.0321 16.5183L24.3154 12.2694M23.5 23.5L26.116 24.6211C26.4195 24.7512 26.5713 24.8163 26.6517 24.9243C26.7222 25.0191 26.7569 25.1358 26.7496 25.2537C26.7413 25.3881 26.6497 25.5255 26.4665 25.8002L25.2375 27.6438C25.1507 27.774 25.1072 27.8391 25.0499 27.8863C24.9991 27.928 24.9406 27.9593 24.8777 27.9784C24.8067 28 24.7284 28 24.5719 28H22.5766C22.3693 28 22.2656 28 22.1774 27.9653C22.0995 27.9347 22.0305 27.885 21.9768 27.8208C21.916 27.7481 21.8832 27.6497 21.8177 27.453L21.1048 25.3144C21.0661 25.1983 21.0468 25.1403 21.0417 25.0814C21.0372 25.0291 21.0409 24.9764 21.0528 24.9253C21.0662 24.8677 21.0935 24.813 21.1482 24.7036L21.6897 23.6206C21.7997 23.4005 21.8547 23.2905 21.9395 23.2222C22.0141 23.162 22.1046 23.1246 22.1999 23.1143C22.3081 23.1027 22.4248 23.1416 22.6582 23.2194L23.5 23.5ZM32 22C32 27.5228 27.5228 32 22 32C16.4772 32 12 27.5228 12 22C12 16.4772 16.4772 12 22 12C27.5228 12 32 16.4772 32 22Z" stroke="#7F7F7F" stroke-width="1.5" stroke-linecap="round" stroke-linejoin="round"/>
<path d="M3.72217 48V40.2227H8.70654V41.3936H5.11865V43.5205H8.36279V44.6914H5.11865V48H3.72217ZM9.73779 48V42.167H11.0698V43.1338H11.1343C11.3384 42.4678 11.9077 42.0811 12.5737 42.0811C12.7241 42.0811 12.939 42.0918 13.0679 42.1133V43.3809C12.9497 43.3379 12.6597 43.2949 12.4341 43.2949C11.6714 43.2949 11.1128 43.8213 11.1128 44.5625V48H9.73779ZM13.8843 48V42.167H15.2593V48H13.8843ZM14.5825 41.3398C14.1528 41.3398 13.7876 41.0068 13.7876 40.5879C13.7876 40.1797 14.1528 39.8467 14.5825 39.8467C15.0229 39.8467 15.3774 40.1797 15.3774 40.5879C15.3774 41.0068 15.0229 41.3398 14.5825 41.3398ZM19.1587 48.1182C17.397 48.1182 16.3228 46.9473 16.3228 45.1211C16.3228 43.3164 17.4185 42.0918 19.0835 42.0918C20.5122 42.0918 21.7476 42.9834 21.7476 45.0352V45.4648H17.6763C17.6924 46.4585 18.2778 47.0439 19.1694 47.0439C19.771 47.0439 20.1792 46.7861 20.3511 46.4424H21.6938C21.4468 47.4521 20.5122 48.1182 19.1587 48.1182ZM17.687 44.5303H20.437C20.4263 43.7354 19.8999 43.1553 19.105 43.1553C18.2778 43.1553 17.73 43.7837 17.687 44.5303ZM24.186 44.584V48H22.811V42.167H24.1216V43.1553H24.1968C24.4653 42.5 25.0562 42.0918 25.9263 42.0918C27.1401 42.0918 27.9351 42.8867 27.9243 44.2832V48H26.5601V44.498C26.5601 43.7139 26.1411 43.252 25.4214 43.252C24.6909 43.252 24.186 43.7354 24.186 44.584ZM31.4048 48.1074C30.0298 48.1074 28.9985 47.0117 28.9985 45.0889C28.9985 43.1445 30.062 42.0918 31.4155 42.0918C32.4468 42.0918 32.8765 42.7041 33.0806 43.123H33.1343V40.2227H34.4985V48H33.1558V47.0762H33.0806C32.8657 47.5059 32.4146 48.1074 31.4048 48.1074ZM31.7808 46.9795C32.6616 46.9795 33.1665 46.2168 33.1665 45.0781C33.1665 43.9502 32.6724 43.209 31.7808 43.209C30.8677 43.209 30.395 43.9932 30.395 45.0781C30.395 46.1846 30.8784 46.9795 31.7808 46.9795ZM39.1929 43.832C39.1069 43.3916 38.7417 43.1123 38.1616 43.1123C37.5708 43.1123 37.1411 43.4023 37.1519 43.7998C37.1411 44.1006 37.3882 44.3262 37.979 44.4658L38.9673 44.6699C40.0737 44.917 40.6001 45.4219 40.6108 46.2598C40.6001 47.3555 39.644 48.1182 38.1187 48.1182C36.6362 48.1182 35.7554 47.4521 35.6157 46.335H37.0122C37.0981 46.8291 37.4849 47.0762 38.1187 47.0762C38.7739 47.0762 39.2144 46.8076 39.2144 46.3779C39.2144 46.0449 38.9458 45.8301 38.3657 45.7012L37.4312 45.4971C36.3462 45.2822 35.7876 44.7129 35.7876 43.875C35.7876 42.8008 36.7114 42.0918 38.1401 42.0918C39.5366 42.0918 40.396 42.7686 40.4927 43.832H39.1929Z" fill="#7F7F7F"/>
</svg>
