<svg width="45" height="52" viewBox="0 0 45 52" fill="none" xmlns="http://www.w3.org/2000/svg">
<path d="M13.576 17.9828L17.864 21.0457C18.0872 21.205 18.1987 21.2847 18.3155 21.3031C18.4182 21.3192 18.5234 21.3029 18.6165 21.2565C18.7222 21.2037 18.8045 21.094 18.969 20.8747L19.8751 19.6665C19.9216 19.6045 19.9449 19.5735 19.9722 19.5467C19.9965 19.523 20.0232 19.5017 20.0517 19.4834C20.0839 19.4627 20.1193 19.447 20.1902 19.4155L24.0588 17.6961C24.2192 17.6248 24.2993 17.5892 24.3598 17.5335C24.4133 17.4843 24.4554 17.424 24.4832 17.3568C24.5146 17.2809 24.5204 17.1934 24.5321 17.0183L24.8154 12.7694M24 24L26.616 25.1211C26.9195 25.2512 27.0713 25.3163 27.1517 25.4243C27.2222 25.5191 27.2569 25.6358 27.2496 25.7537C27.2413 25.8881 27.1497 26.0255 26.9665 26.3002L25.7375 28.1438C25.6507 28.274 25.6072 28.3391 25.5499 28.3863C25.4991 28.428 25.4406 28.4593 25.3777 28.4784C25.3067 28.5 25.2284 28.5 25.0719 28.5H23.0766C22.8693 28.5 22.7656 28.5 22.6774 28.4653C22.5995 28.4347 22.5305 28.385 22.4768 28.3208C22.416 28.2481 22.3832 28.1497 22.3177 27.953L21.6048 25.8144C21.5661 25.6983 21.5468 25.6403 21.5417 25.5814C21.5372 25.5291 21.5409 25.4764 21.5528 25.4253C21.5662 25.3677 21.5935 25.313 21.6482 25.2036L22.1897 24.1206C22.2997 23.9005 22.3547 23.7905 22.4395 23.7222C22.5141 23.662 22.6046 23.6246 22.6999 23.6143C22.8081 23.6027 22.9248 23.6416 23.1582 23.7194L24 24ZM32.5 22.5C32.5 28.0228 28.0228 32.5 22.5 32.5C16.9772 32.5 12.5 28.0228 12.5 22.5C12.5 16.9772 16.9772 12.5 22.5 12.5C28.0228 12.5 32.5 16.9772 32.5 22.5Z" stroke="#7F7F7F" stroke-width="1.5" stroke-linecap="round" stroke-linejoin="round"/>
<path d="M11.8975 39.7559V46.8779H10.6943V39.7559H11.8975ZM12.166 48.2959V49.2627H5.47363V46.2334H6.67676V48.2959H12.166ZM7.49316 42.0117C7.49316 43.1611 8.33105 44.2568 9.87793 44.6973L9.30859 45.6426C8.17529 45.3096 7.36426 44.6221 6.92383 43.7412C6.4834 44.6973 5.66162 45.4492 4.50684 45.8037L3.92676 44.8691C5.48438 44.3965 6.30078 43.2363 6.30078 42.0117V41.8828H4.22754V40.9375H6.30078V39.7988H7.50391V40.9375H9.56641V41.8828H7.49316V42.0117ZM21.082 40.3359V41.2061C21.082 42.1138 21.082 43.1074 20.8242 44.4824H22.167V45.4492H18.3105V49.4668H17.1074V45.4492H13.3154V44.4824H19.6104C19.8789 43.1611 19.8896 42.1729 19.8896 41.3027H14.3574V40.3359H21.082ZM30.5459 40.1426V43.5156H27.8389V44.5361H31.6738V45.5029H22.8223V44.5361H26.6357V43.5156H23.9395V40.1426H30.5459ZM25.0996 41.0771V42.5703H29.3643V41.0771H25.0996ZM30.5889 46.3193V49.4561H29.3965V47.2646H23.7998V46.3193H30.5889ZM41.1914 44.998V45.9648H32.3184V44.998H36.1641V44.1924H33.4463V41.6143H38.9033V40.8945H33.4141V39.96H40.0957V42.4844H34.6279V43.2578H40.2891V44.1924H37.3457V44.998H41.1914ZM40.1494 46.5771V49.3916H38.9463V47.5225H33.3066V46.5771H40.1494Z" fill="#7F7F7F"/>
</svg>
