<svg width="25" height="25" viewBox="0 0 25 25" fill="none" xmlns="http://www.w3.org/2000/svg">
<path d="M3.57598 7.98282L7.86402 11.0457C8.08715 11.205 8.19872 11.2847 8.31548 11.3031C8.41821 11.3192 8.52343 11.3029 8.61648 11.2565C8.72223 11.2037 8.80449 11.094 8.96901 10.8747L9.87511 9.66652C9.92164 9.60448 9.9449 9.57347 9.97224 9.54671C9.99652 9.52295 10.0232 9.50173 10.0517 9.48338C10.0839 9.4627 10.1193 9.44696 10.1902 9.41546L14.0588 7.69609C14.2192 7.62482 14.2993 7.58918 14.3598 7.53352C14.4133 7.4843 14.4554 7.424 14.4832 7.35684C14.5146 7.28091 14.5204 7.19336 14.5321 7.01826L14.8154 2.7694M14 14L16.616 15.1211C16.9195 15.2512 17.0713 15.3163 17.1517 15.4243C17.2222 15.5191 17.2569 15.6358 17.2496 15.7537C17.2413 15.8881 17.1497 16.0255 16.9665 16.3002L15.7375 18.1438C15.6507 18.274 15.6072 18.3391 15.5499 18.3863C15.4991 18.428 15.4406 18.4593 15.3777 18.4784C15.3067 18.5 15.2284 18.5 15.0719 18.5H13.0766C12.8693 18.5 12.7656 18.5 12.6774 18.4653C12.5995 18.4347 12.5305 18.385 12.4768 18.3208C12.416 18.2481 12.3832 18.1497 12.3177 17.953L11.6048 15.8144C11.5661 15.6983 11.5468 15.6403 11.5417 15.5814C11.5372 15.5291 11.5409 15.4764 11.5528 15.4253C11.5662 15.3677 11.5935 15.313 11.6482 15.2036L12.1897 14.1206C12.2997 13.9005 12.3547 13.7905 12.4395 13.7222C12.5141 13.662 12.6046 13.6246 12.6999 13.6143C12.8081 13.6027 12.9248 13.6416 13.1582 13.7194L14 14ZM22.5 12.5C22.5 18.0228 18.0228 22.5 12.5 22.5C6.97715 22.5 2.5 18.0228 2.5 12.5C2.5 6.97715 6.97715 2.5 12.5 2.5C18.0228 2.5 22.5 6.97715 22.5 12.5Z" stroke="#7F7F7F" stroke-width="1.5" stroke-linecap="round" stroke-linejoin="round"/>
</svg>
